<svg width="594" height="610" viewBox="0 0 594 610" fill="none" xmlns="http://www.w3.org/2000/svg">
<path d="M112.159 317.395C10.0744 377.919 10.0863 475.995 112.159 536.568C214.232 597.141 379.744 597.092 481.829 536.568C583.914 476.044 583.902 377.968 481.829 317.395C379.756 256.822 214.244 256.871 112.159 317.395Z" fill="#FAFAFA"/>
<path d="M302.061 557.735C354.012 557.735 396.127 532.762 396.127 501.957C396.127 471.151 354.012 446.178 302.061 446.178C250.11 446.178 207.995 471.151 207.995 501.957C207.995 532.762 250.11 557.735 302.061 557.735Z" fill="#E0E0E0"/>
<path d="M244.49 466.87C246.082 447.594 244.597 439.481 246.51 409.383C246.736 401.661 247.104 393.389 247.698 386.045C249.694 361.34 253.519 352.922 253.923 348.164C253.923 348.164 253.923 318.518 256.097 264.423C257.131 238.986 264.413 231.361 270.353 217.916L343.118 218.746C346.967 252.43 346.741 314.906 346.124 349.286C345.803 366.793 337.974 453.791 337.808 455.951C337.237 463.588 337.808 466.613 340.742 469.859C346.813 476.666 355.64 483.181 363.314 489.135C362.126 492.136 352.907 491.916 348.345 489.574C342.378 486.308 336.697 482.516 331.369 478.24C325.096 473.36 317.053 469.456 317.041 462.173C317.01 461.732 316.943 461.296 316.839 460.867C316.768 456.609 307.621 400.453 306.979 385.898C306.433 373.381 308.167 352.177 308.167 352.177L301.669 309.05C301.669 309.05 297.546 331.486 292.379 352.812C288.161 370.172 280.748 393.072 275.996 414.446C271.375 439.066 264.805 456.561 263.558 468.895C263.189 471.847 259.59 500.749 258.164 507.361C256.739 513.974 242.601 513.986 241.817 502.579C241.306 494.966 244.193 470.493 244.49 466.87Z" fill="#C8856A"/>
<path d="M376.299 496.955C376.679 496.955 377.273 501.359 375.111 503.238C372.652 505.397 365.441 508.947 355.925 507.679C346.409 506.41 341.253 503.409 337.451 500.151C333.65 496.894 328.304 492.294 324.003 491.318C320 490.416 315.687 488.561 314.38 487.292C313.074 486.024 313.287 480.424 313.287 480.424L376.299 496.955Z" fill="#263238"/>
<path d="M316.661 458.793C316.661 458.793 315.948 458.793 315.699 460.123C315.402 461.672 315.081 466.223 314.451 468.663C313.572 472.189 312.978 479.423 313.501 482.303C314.024 485.182 320.546 487.183 324.704 488.805C329.604 490.999 334.154 493.94 338.2 497.528C342.666 501.298 352.075 505.08 358.277 505.178C367.781 505.324 373.887 502.738 375.788 499.224C378.164 494.917 376.299 492.429 365.417 487.268C363.361 486.292 356.126 481.912 353.655 480.326C351.043 478.657 348.568 476.772 346.254 474.69C345.094 473.626 343.988 472.503 342.94 471.323C341.852 470.275 340.923 469.066 340.184 467.736C340.065 467.431 339.982 467.089 339.875 466.784C339.567 465.94 339.328 465.071 339.162 464.186C338.984 463.258 338.877 461.904 337.974 461.355C336.741 460.836 335.394 460.671 334.077 460.879C332.667 460.979 331.265 461.183 329.884 461.489C328.28 461.855 326.426 462.002 325.476 463.539C324.843 464.779 324.532 466.166 324.573 467.565C324.573 468.212 324.573 468.87 324.573 469.517C324.573 469.798 324.692 470.298 324.312 470.176C323.932 470.054 323.54 469.09 323.409 468.761C323.112 468.041 322.91 467.26 322.589 466.54C322.224 465.706 321.77 464.916 321.235 464.186C320.725 463.526 320.148 462.925 319.512 462.392C318.865 462.029 318.242 461.621 317.647 461.172C317.097 460.497 316.753 459.669 316.661 458.793Z" fill="#37474F"/>
<path d="M367.175 488.171C353.453 489.122 349.129 497.772 348.547 503.128C351.667 504.334 354.948 505.042 358.277 505.226C367.781 505.373 374.279 502.786 376.168 499.273C378.389 495.222 376.893 491.941 367.175 488.171Z" fill="#FAFAFA"/>
<path d="M346.611 488.305C346.458 488.306 346.31 488.249 346.195 488.146C346.127 488.09 346.07 488.02 346.029 487.94C345.987 487.861 345.961 487.774 345.952 487.685C345.943 487.595 345.952 487.505 345.977 487.419C346.002 487.332 346.044 487.252 346.1 487.183C347.702 485.493 349.638 484.173 351.777 483.313C353.915 482.452 356.208 482.071 358.502 482.193C358.59 482.202 358.675 482.229 358.752 482.272C358.83 482.315 358.898 482.373 358.953 482.444C359.008 482.514 359.05 482.595 359.074 482.682C359.099 482.768 359.106 482.859 359.096 482.949C359.088 483.039 359.061 483.126 359.019 483.206C358.978 483.285 358.921 483.355 358.852 483.412C358.784 483.469 358.705 483.511 358.62 483.536C358.536 483.562 358.447 483.569 358.36 483.559C356.291 483.462 354.226 483.807 352.293 484.571C350.361 485.336 348.604 486.503 347.133 488C347.076 488.09 346.999 488.165 346.908 488.218C346.817 488.271 346.715 488.301 346.611 488.305Z" fill="#F0F0F0"/>
<path d="M340.718 484.779C340.564 484.781 340.413 484.729 340.29 484.633C340.222 484.576 340.166 484.506 340.124 484.427C340.083 484.348 340.057 484.261 340.048 484.171C340.039 484.082 340.047 483.991 340.073 483.905C340.098 483.819 340.14 483.739 340.195 483.669C341.797 481.977 343.732 480.657 345.871 479.796C348.01 478.935 350.304 478.555 352.598 478.679C352.69 478.682 352.78 478.704 352.863 478.744C352.946 478.784 353.02 478.842 353.081 478.913C353.141 478.984 353.186 479.067 353.214 479.157C353.241 479.247 353.251 479.342 353.241 479.436C353.231 479.529 353.202 479.62 353.157 479.702C353.111 479.784 353.049 479.855 352.976 479.911C352.902 479.967 352.818 480.007 352.728 480.028C352.639 480.049 352.546 480.051 352.456 480.033C350.382 479.942 348.313 480.294 346.38 481.07C344.447 481.845 342.693 483.025 341.229 484.535C341.166 484.611 341.088 484.672 340.999 484.714C340.911 484.757 340.815 484.779 340.718 484.779Z" fill="#F0F0F0"/>
<path d="M335.241 480.765C335.089 480.766 334.941 480.71 334.826 480.607C334.758 480.55 334.701 480.48 334.659 480.401C334.618 480.322 334.592 480.235 334.583 480.145C334.574 480.056 334.583 479.965 334.608 479.879C334.633 479.793 334.675 479.713 334.731 479.643C336.334 477.954 338.27 476.636 340.408 475.776C342.547 474.915 344.839 474.533 347.133 474.653C347.309 474.675 347.469 474.766 347.58 474.907C347.691 475.049 347.744 475.229 347.727 475.41C347.718 475.5 347.692 475.587 347.65 475.666C347.608 475.746 347.552 475.816 347.483 475.873C347.415 475.929 347.336 475.972 347.251 475.997C347.167 476.022 347.078 476.03 346.991 476.02C344.919 475.93 342.851 476.283 340.919 477.055C338.987 477.828 337.231 479.004 335.764 480.509C335.702 480.59 335.623 480.656 335.532 480.7C335.441 480.744 335.342 480.767 335.241 480.765Z" fill="#F0F0F0"/>
<path d="M329.883 476.752C329.731 476.751 329.583 476.695 329.468 476.593C329.332 476.48 329.245 476.318 329.225 476.14C329.205 475.962 329.253 475.783 329.361 475.641C331.998 472.25 337.938 470.017 342.916 470.578C343.003 470.587 343.087 470.614 343.164 470.658C343.241 470.701 343.309 470.759 343.363 470.83C343.417 470.901 343.457 470.982 343.48 471.068C343.504 471.155 343.51 471.246 343.498 471.335C343.489 471.425 343.463 471.512 343.421 471.591C343.379 471.671 343.322 471.741 343.254 471.798C343.185 471.854 343.106 471.897 343.022 471.922C342.937 471.947 342.849 471.955 342.761 471.945C338.283 471.445 332.747 473.482 330.418 476.483C330.354 476.566 330.273 476.633 330.18 476.68C330.088 476.726 329.986 476.751 329.883 476.752Z" fill="#F0F0F0"/>
<path d="M262.548 512.571C262.096 519.171 261.039 523.551 258.699 527.394C256.358 531.237 252.022 532.408 247.65 531.225C243.278 530.041 237.695 526.942 236.507 521.221C235.319 515.499 234.63 511.595 235.699 505.483L262.548 512.571Z" fill="#263238"/>
<path d="M244.728 464.515C242.922 464.637 242.352 473.506 241.164 482.376C239.976 491.88 237.113 495.796 236.02 503.579C234.832 512.485 236.186 516.487 239.18 521.879C242.174 527.272 252.937 532.725 258.366 525.064C262.786 518.817 263.047 511.839 262.762 502.921C262.622 495.391 262.899 487.86 263.593 480.363C264.033 473.689 265.554 466.943 263.985 466.211C263.855 467.187 263.724 468.431 263.593 469.395C263.516 470.599 263.305 471.79 262.964 472.945C262.774 473.445 262.37 473.958 262.215 473.153C262.132 472.599 262.132 472.035 262.215 471.481C262.512 469.041 261.301 468.822 260.647 468.614C257.899 468.031 255.123 467.595 252.331 467.309C250.953 467.199 246.189 466.931 245.56 467.724C245.153 468.518 244.937 469.4 244.93 470.298C244.752 471.64 244.443 472.616 244.407 472.201C244.336 471.237 244.538 468.736 244.574 468.138C244.609 467.541 244.704 466.772 244.716 466.186C244.728 465.601 244.621 465.076 244.728 464.515Z" fill="#37474F"/>
<path d="M235.378 508.74C234.998 513.508 236.128 518.275 238.598 522.331C241.603 527.76 253.234 533.201 258.663 525.539C261.36 521.733 262.132 517.195 262.548 512.571C259.411 506.581 240.487 503.738 235.378 508.74Z" fill="#FAFAFA"/>
<path d="M258.723 502.823H258.497C258.426 502.823 250.11 499.163 241.948 500.981C241.775 501.017 241.595 500.983 241.446 500.885C241.297 500.787 241.192 500.633 241.152 500.456C241.133 500.369 241.131 500.278 241.147 500.19C241.162 500.102 241.195 500.018 241.242 499.943C241.29 499.868 241.352 499.803 241.424 499.753C241.496 499.703 241.577 499.668 241.663 499.651C250.288 497.711 258.77 501.432 259.091 501.591C259.248 501.672 259.368 501.813 259.426 501.984C259.484 502.155 259.474 502.342 259.4 502.506C259.329 502.621 259.228 502.712 259.107 502.769C258.987 502.825 258.853 502.844 258.723 502.823Z" fill="#F0F0F0"/>
<path d="M242.435 494.283C242.307 494.268 242.186 494.217 242.085 494.135C241.984 494.053 241.908 493.944 241.864 493.819C241.812 493.646 241.827 493.459 241.907 493.297C241.987 493.135 242.125 493.012 242.292 492.953C250.43 490.245 259.364 494.551 259.696 494.734C259.775 494.775 259.845 494.832 259.901 494.902C259.958 494.971 260 495.052 260.026 495.138C260.051 495.225 260.059 495.316 260.05 495.406C260.04 495.496 260.013 495.583 259.97 495.662C259.884 495.82 259.742 495.938 259.574 495.99C259.405 496.042 259.223 496.025 259.067 495.942C258.995 495.942 250.276 491.721 242.708 494.246C242.621 494.282 242.527 494.294 242.435 494.283Z" fill="#F0F0F0"/>
<path d="M242.791 488C242.643 487.982 242.506 487.913 242.401 487.805C242.295 487.696 242.229 487.555 242.211 487.403C242.193 487.252 242.225 487.098 242.303 486.967C242.38 486.837 242.498 486.736 242.637 486.682C251.583 483.523 260.065 488.22 260.374 488.415C260.453 488.459 260.523 488.52 260.578 488.593C260.634 488.666 260.675 488.751 260.698 488.84C260.721 488.93 260.726 489.024 260.712 489.116C260.699 489.208 260.667 489.296 260.62 489.375C260.572 489.453 260.509 489.522 260.435 489.575C260.36 489.628 260.277 489.665 260.188 489.683C260.099 489.702 260.008 489.702 259.919 489.683C259.831 489.664 259.747 489.627 259.673 489.574C259.602 489.574 251.357 485.035 243.041 487.976C242.959 487.998 242.875 488.006 242.791 488Z" fill="#F0F0F0"/>
<path d="M243.302 481.9C243.177 481.887 243.058 481.837 242.96 481.757C242.861 481.677 242.786 481.57 242.744 481.449C242.686 481.277 242.696 481.089 242.772 480.925C242.847 480.761 242.982 480.634 243.148 480.57C251.535 477.484 260.659 482.29 260.968 482.51C261.118 482.602 261.227 482.75 261.272 482.924C261.316 483.097 261.292 483.282 261.206 483.437C261.114 483.596 260.965 483.71 260.791 483.756C260.618 483.802 260.433 483.775 260.279 483.681C260.208 483.681 251.357 478.984 243.564 481.863C243.48 481.894 243.391 481.907 243.302 481.9Z" fill="#EBEBEB"/>
<path d="M262.738 218.087C254.422 233.13 254.066 245.464 252.723 290.445C251.381 335.427 252.474 339.245 252.248 344.65C252.022 350.055 248.803 359.729 245.785 386.423C243.986 403.655 243.771 421.023 245.144 438.297C245.144 438.297 246.973 442.616 257.024 443.653C266.243 444.605 270.852 441.115 270.852 441.115C270.852 441.115 284.562 395.975 288.244 379.859C291.927 363.743 301.597 319.811 301.597 319.811L306.349 352.861C306.349 352.861 303.368 367.586 305.91 391.059C307.346 404.695 309.567 418.233 312.563 431.599C317.329 433.437 322.369 434.415 327.46 434.491C331.996 434.545 336.46 433.317 340.362 430.941C340.362 430.941 348.405 368.294 348.678 341.722C348.951 315.15 346.955 251.198 344.817 219.283L262.738 218.087Z" fill="#37474F"/>
<path d="M290.977 352.714C290.977 352.714 287.068 346.809 277.339 345.492C267.609 344.174 262.465 349.53 262.465 349.53C262.465 349.53 280.582 347.785 290.977 352.714ZM261.277 353.446C273.822 356.13 279.56 355.679 285.322 354.581C285.37 354.581 267.3 352.031 261.36 353.446H261.277Z" fill="#C8856A"/>
<path d="M348.428 348.652L348.547 345.772C340.16 344.552 326.759 347.151 323.147 349.225C331.533 348.15 340.004 347.958 348.428 348.652ZM329.076 352.58C334.683 354.19 348.084 355.02 348.084 355.02L348.25 352.324C348.25 352.324 338.663 351.982 329.076 352.58Z" fill="#C8856A"/>
<path d="M246.854 440.237C247.283 440.577 247.735 440.883 248.209 441.152C246.142 399.123 251.987 381.775 255.586 365.732C255.931 364.194 256.263 362.73 256.56 361.34C259.281 348.798 258.331 341.295 258.532 320.64C258.532 314.418 258.651 307.989 258.782 301.12C258.948 293.129 259.281 284.87 259.97 276.72C274.321 275.134 277.6 260.714 281.734 242.499C282.292 240.059 282.922 237.436 283.516 234.789L282.245 234.472C281.603 237.119 281.057 239.706 280.463 242.194C276.317 260.494 273.335 273.707 260.101 275.342C261.871 256.773 265.827 238.815 274.903 225.907L273.846 225.127C260.35 244.329 257.986 274.317 257.44 301.12C257.309 307.952 257.249 314.382 257.19 320.64C256.988 341.222 257.938 348.7 255.254 361.059C254.945 362.45 254.624 363.914 254.279 365.451C250.727 381.421 244.906 398.635 246.854 440.237ZM310.389 272.938L301.538 319.811L306.29 352.861L306.765 321.141L312.705 289.53C312.883 292.678 313.062 295.911 313.24 299.205C314.749 326.387 315.616 347.249 314.19 353.715C310.175 371.429 311.173 382.641 313.002 403.015C313.192 405.077 313.382 407.236 313.573 409.505C314.559 421.01 315.842 425.67 316.59 433.076C317.006 433.185 317.457 433.307 317.944 433.417C317.196 426.024 315.877 421.132 314.879 409.383C314.677 407.114 314.487 404.955 314.309 402.893C312.515 382.665 311.529 371.527 315.497 354.02C317.006 347.358 316.162 327.729 314.582 299.12C314.297 293.935 314.012 288.908 313.763 284.114L315.022 278.416C321.306 276.952 331.416 272.17 333.353 263.349C323.54 273.524 310.389 272.938 310.389 272.938Z" fill="#263238"/>
<path d="M325.286 130.955C338.069 133.468 344.211 137.677 350.864 149.255C357.517 160.833 367.496 190.027 367.365 196.591H340.778L325.286 130.955Z" fill="#C8856A"/>
<path d="M342.346 186.184C348.012 184.623 352.194 183.512 355.164 183.586C352.788 181.963 342.096 183.842 342.096 183.842L342.346 186.184Z" fill="#AF6152"/>
<path d="M324.657 130.113C333.709 130.845 340.291 133.431 346.326 141.02C352.361 148.608 352.884 151.548 356.079 159.844C359.275 168.14 361.449 173.667 361.449 173.667C361.449 173.667 355.367 184.854 335.61 183.171L328.577 161.528L324.657 130.113Z" fill="#37474F"/>
<path d="M277.529 127.575C277.529 127.575 266.076 130.674 254.648 134.895C254.648 134.895 242.114 140.105 248.957 177.937C250.692 187.477 254.208 201.361 255.171 213.158C255.717 219.856 255.289 236.009 254.422 249.758C254.422 249.758 274.737 263.52 312.04 259.25C341.324 255.883 346.076 242.658 346.076 242.658C346.076 242.658 344.888 208.791 342.453 186.416C338.948 154.293 332.688 136.323 324.633 130.028L308.001 128.198L277.529 127.575Z" fill="#455A64"/>
<path d="M264.413 103.236C267.191 108.696 270.751 113.697 274.974 118.072C276.233 119.503 277.983 120.378 279.857 120.512L277.018 109.117L274.844 101.26C274.844 101.26 279.75 93.94 279.002 88.0962C278.741 85.9064 278.177 83.7661 277.327 81.74L314.974 75.64C314.974 75.64 316.234 65.1724 309.652 58.6942C303.356 52.4844 295.396 49.4344 283.1 53.0212C268.096 57.4132 261.93 66.9414 262.287 73.6392C259.989 75.287 258.384 77.7673 257.796 80.581C257.047 83.7774 257.178 89.2308 264.413 103.236Z" fill="#263238"/>
<path d="M268.132 113.777C268.516 113.952 268.913 114.094 269.32 114.204C270.395 114.546 271.531 114.642 272.646 114.485C273.582 114.214 274.438 113.711 275.141 113.021C275.966 112.34 276.666 111.514 277.208 110.581L277.612 132.163C287.757 144.875 322.138 141.386 307.965 128.673L308.381 120.878C310.035 120.451 311.656 119.896 313.228 119.218C315.738 118.265 317.917 116.572 319.494 114.352C321.071 112.132 321.974 109.483 322.091 106.738C322.447 97.7952 316.733 79.8124 313.193 70.1378C312.648 68.68 311.797 67.3634 310.7 66.2817C309.604 65.2 308.289 64.3797 306.849 63.8792C300.065 62.1834 295.444 67.9906 287.734 73.3952C284.55 75.64 276.174 78.2752 273.692 77.6774C275.66 79.4058 276.993 81.7735 277.469 84.3874C277.853 86.2987 277.906 88.2646 277.624 90.1946C277.208 91.9024 276.949 93.6465 276.852 95.404C276.963 96.2091 276.835 97.0299 276.483 97.7586C276.144 98.1384 275.69 98.3905 275.195 98.4745C274.7 98.5586 274.191 98.4697 273.751 98.2222C272.885 97.7115 272.086 97.0883 271.375 96.3678C270.371 95.4652 269.132 94.8842 267.811 94.6964C266.553 94.6556 265.312 95.0067 264.252 95.7035C263.192 96.4002 262.362 97.4101 261.871 98.6004C260.933 101.034 260.907 103.738 261.8 106.189C262.284 107.836 263.097 109.362 264.187 110.668C265.277 111.975 266.621 113.034 268.132 113.777Z" fill="#C8856A"/>
<path d="M308.393 120.853C301.74 122.366 295.646 122.891 291.345 122.073C287.045 121.256 282.34 116.571 279.988 111.374C280.962 115.778 284.55 123.135 291.226 124.989C297.903 126.843 303.819 125.465 308.191 124.55L308.393 120.853Z" fill="#AF6152"/>
<path d="M291.06 79.6172L286.819 84.3386C286.208 83.7278 285.851 82.899 285.82 82.0243C285.789 81.1496 286.087 80.2963 286.653 79.6416C286.934 79.3317 287.274 79.0842 287.652 78.9142C288.031 78.7442 288.438 78.6553 288.851 78.653C289.264 78.6507 289.673 78.7351 290.053 78.9009C290.432 79.0667 290.775 79.3104 291.06 79.6172Z" fill="#263238"/>
<path d="M313.216 78.08L306.92 78.3606C306.876 77.9405 306.916 77.5156 307.038 77.1121C307.16 76.7087 307.362 76.3352 307.63 76.015C307.898 75.6948 308.228 75.4345 308.598 75.2504C308.969 75.0663 309.372 74.9622 309.783 74.9446C310.636 74.9194 311.467 75.2299 312.105 75.8127C312.743 76.3955 313.141 77.2065 313.216 78.08Z" fill="#263238"/>
<path d="M290.335 89.3894C290.489 89.8797 290.78 90.3125 291.172 90.6334C291.564 90.9542 292.04 91.1488 292.539 91.1927C293.039 91.2366 293.54 91.1278 293.98 90.88C294.419 90.6321 294.777 90.2564 295.01 89.8C295.242 89.3435 295.337 88.8268 295.284 88.3148C295.231 87.8027 295.032 87.3183 294.711 86.9223C294.39 86.5264 293.963 86.2366 293.482 86.0895C293.002 85.9423 292.49 85.9444 292.01 86.0954C291.69 86.1982 291.391 86.3651 291.133 86.5864C290.875 86.8077 290.663 87.0792 290.507 87.3852C290.351 87.6913 290.256 88.0258 290.227 88.3698C290.197 88.7137 290.234 89.0602 290.335 89.3894Z" fill="#263238"/>
<path d="M308.488 83.7286C308.643 84.2175 308.935 84.6485 309.328 84.9675C309.721 85.2865 310.197 85.4792 310.696 85.5215C311.195 85.5638 311.695 85.4537 312.133 85.2052C312.572 84.9567 312.929 84.5808 313.16 84.1245C313.391 83.6683 313.486 83.1522 313.433 82.6409C313.379 82.1295 313.18 81.6458 312.86 81.2504C312.54 80.8549 312.113 80.5654 311.633 80.4181C311.153 80.2708 310.642 80.2723 310.163 80.4224C309.841 80.5251 309.541 80.6924 309.282 80.9146C309.023 81.1368 308.81 81.4094 308.654 81.7169C308.498 82.0243 308.403 82.3603 308.375 82.7056C308.346 83.0509 308.385 83.3986 308.488 83.7286Z" fill="#263238"/>
<path d="M299.863 83.143L305.423 99.003L313.632 93.391C309.848 88.9583 305.142 85.456 299.863 83.143Z" fill="#AF6152"/>
<path d="M305.458 105.725L305.387 105.652C305.279 105.588 305.155 105.558 305.031 105.567C304.042 105.638 303.049 105.638 302.061 105.567C301.203 105.459 300.366 105.22 299.578 104.859C298.904 104.398 298.197 103.991 297.463 103.639C297.416 103.626 297.368 103.624 297.32 103.633C297.273 103.642 297.228 103.662 297.19 103.692C297.151 103.721 297.119 103.759 297.096 103.803C297.074 103.846 297.061 103.895 297.059 103.944C297.13 104.713 298.247 105.298 298.865 105.628C299.608 106.021 300.412 106.277 301.241 106.384C302.124 106.5 303.019 106.5 303.902 106.384C304.35 106.333 304.795 106.252 305.233 106.14C305.434 106.006 305.553 105.859 305.458 105.725Z" fill="#AF6152"/>
<path d="M272.646 222.04C273.941 222.04 275.224 222.04 276.507 222.113C279.824 222.193 283.143 222.095 286.451 221.82C288.518 221.637 290.573 221.369 292.616 220.991C294.477 220.727 296.316 220.32 298.117 219.771C301.681 218.465 305.162 216.977 308.619 215.489C312.076 214 316.578 213.768 320.19 213.451C328.684 212.731 336.263 212.756 344.698 211.438C349.631 210.685 354.432 209.206 358.954 207.046C361.866 205.574 364.352 203.345 366.165 200.58C368.423 196.92 367.223 194.48 364.074 192.272C361.378 190.357 353.525 186.343 342.31 186.172C336.952 187.612 330.68 189.771 324.74 191.76C319.168 193.638 314.939 195.176 309.296 196.64C306.838 197.171 304.307 197.245 301.823 196.859C299.447 196.518 297.416 195.761 295.135 195.383C292.238 194.682 289.29 194.229 286.32 194.029C281.259 194.029 276.079 195.7 272.646 196.176C269.213 196.652 269.438 198.616 272.028 200.068C273.382 200.635 274.851 200.849 276.305 200.69C277.933 200.69 279.56 200.568 281.188 200.69C281.568 200.69 282.316 200.69 282.518 201.068C282.72 201.446 282.198 201.971 281.841 202.142C279.81 203.106 277.552 202.837 275.378 202.825H268.25C267.3 202.825 266.338 202.825 265.387 202.825C264.045 202.91 262.667 203.118 261.918 204.399C261.672 204.777 261.551 205.226 261.574 205.68C261.574 206.058 261.788 206.375 261.372 206.656C261.031 206.83 260.659 206.93 260.279 206.949C259.878 207.037 259.503 207.222 259.186 207.49C258.869 207.758 258.62 208.099 258.458 208.486C258.296 208.874 258.227 209.295 258.257 209.715C258.286 210.135 258.413 210.542 258.628 210.901C258.983 211.413 259.451 211.831 259.994 212.121C260.27 212.25 260.521 212.433 260.73 212.658C260.877 212.87 260.989 213.105 261.063 213.354C261.324 213.99 261.732 214.551 262.251 214.988C263.221 215.72 264.359 216.182 265.554 216.33C266.552 216.513 267.561 216.635 268.571 216.745C269.937 216.904 271.304 217.123 272.682 217.306L274.452 217.514L275.343 217.611C275.629 217.612 275.913 217.658 276.186 217.746C276.02 217.916 275.331 217.843 275.081 217.855L273.81 217.941C273.002 218.002 272.195 218.087 271.434 218.221C270.88 218.303 270.343 218.476 269.842 218.734C269.406 218.927 269.048 219.27 268.832 219.704C268.615 220.138 268.552 220.636 268.654 221.113C268.744 221.289 268.874 221.44 269.034 221.553C269.193 221.665 269.377 221.736 269.569 221.759C269.922 221.836 270.279 221.889 270.638 221.918C271.209 222.04 271.933 222.04 272.646 222.04Z" fill="#C8856A"/>
<path d="M295.289 209.047C297.471 205.13 299.16 200.945 300.315 196.591C298.556 196.213 296.905 195.688 295.123 195.371C292.226 194.67 289.278 194.217 286.308 194.017C281.247 194.017 276.068 195.688 272.634 196.164C269.201 196.64 269.427 198.604 272.016 200.056C273.37 200.623 274.84 200.837 276.293 200.678C277.921 200.678 279.548 200.556 281.176 200.678C281.556 200.678 282.305 200.678 282.507 201.056C282.708 201.434 282.186 201.959 281.829 202.13C279.798 203.093 277.541 202.825 275.367 202.813H268.239C267.288 202.813 266.326 202.813 265.376 202.813C264.033 202.898 262.655 203.106 261.907 204.387C261.66 204.764 261.54 205.214 261.562 205.668C261.562 205.985 261.705 206.265 261.491 206.509C262.009 206.844 262.45 207.289 262.786 207.815L265.067 211.829C263.156 212.042 261.226 211.993 259.329 211.682C259.534 211.855 259.752 212.01 259.982 212.146C260.24 212.273 260.477 212.441 260.683 212.646C262.129 212.955 263.554 213.363 264.948 213.866C266.203 214.607 267.318 215.574 268.239 216.721H268.548C269.914 216.879 271.28 217.099 272.658 217.282L274.428 217.489L275.319 217.587C275.605 217.588 275.89 217.633 276.163 217.721C275.996 217.892 275.307 217.819 275.058 217.831L273.787 217.916C272.979 217.977 272.171 218.063 271.411 218.197C271.006 218.269 270.608 218.379 270.223 218.526C274.238 221.711 279.845 223.223 284.55 221.027C285.149 220.751 285.728 220.433 286.284 220.076C290.276 217.489 292.973 213.219 295.289 209.047Z" fill="#AF6152"/>
<path d="M279.786 220.661C275.034 220.234 270.792 219.844 263.95 208.559C258.639 199.824 255.847 194.078 250.62 181.853C245.393 169.629 241.508 161.113 241.995 153.33C242.387 146.973 243.967 140.08 254.826 135.774C261.36 140.044 270.365 152.097 274.535 162.992C278.705 173.887 286.082 194.236 286.082 194.236L279.786 220.661Z" fill="#C8856A"/>
<path d="M254.648 135.286C243.338 140.032 239.204 148.828 242.352 161.882C245.856 176.522 255.42 196.042 255.42 196.042C255.42 196.042 261.811 196.347 269.854 191.003C274.754 187.668 278.598 182.936 280.914 177.388C280.914 177.388 276.887 165.774 274.701 159.588C270.389 147.352 262.809 137.274 254.648 135.286Z" fill="#37474F"/>
<path d="M268.322 196.627C268.654 183.476 274.488 175.473 278.943 165.627C283.398 155.782 285.845 149.853 287.484 143.887C289.124 137.921 289.967 129.247 289.171 124.83C288.504 121.46 287.57 118.151 286.379 114.936C285.572 112.74 286.439 112.496 288.47 112.594C290.502 112.691 292.688 113.68 294.577 117.474C296.466 121.268 296.953 123.574 297.844 123.391C298.735 123.208 303.154 117.913 305.732 115.424C308.31 112.935 309.296 112.862 313.288 112.362C316.468 111.876 319.706 111.951 322.863 112.582C324.502 113.106 326.914 115.485 327.9 116.242C329.278 117.34 326.95 119.353 324.336 118.401L321.77 117.462C322.78 118.267 322.708 119.377 322.863 120.756C322.915 121.685 322.632 122.602 322.067 123.33C322.067 123.33 323.017 123.623 323.374 125.367C323.587 126.415 323.547 127.5 323.255 128.527C323.55 128.49 323.849 128.546 324.112 128.687C324.375 128.829 324.59 129.05 324.728 129.32C325.31 130.296 326.082 131.87 322.661 135.066C319.239 138.263 316.721 140.41 313.775 142.911C311.806 144.451 310.09 146.305 308.69 148.401C306.896 151.085 306.314 155.611 305.209 162.894C302.667 179.047 302.18 183.061 299.483 192.931C297.44 200.434 295.04 208.205 287.092 216.611C280.083 224.029 275.426 219.759 272.682 214.439C270.02 208.885 268.534 202.814 268.322 196.627Z" fill="#C8856A"/>
<path d="M268.321 196.627C268.024 184.427 274.855 173.972 279.512 163.285C281.956 157.935 284.137 152.463 286.046 146.888C288.369 139.942 289.267 132.577 288.684 125.257C288.003 121.649 287.014 118.109 285.726 114.68C284.538 111.142 289.48 111.825 291.262 112.862C294.636 114.851 295.598 118.962 297.202 122.256C297.332 122.537 297.629 123.074 297.748 123C301.205 120.207 303.831 116.205 307.537 113.582C308.839 112.842 310.292 112.424 311.778 112.362C314.656 111.958 317.568 111.876 320.463 112.118C323.552 112.118 325.749 114.424 327.888 116.376C325.678 114.546 323.468 112.338 320.439 112.435C317.571 112.281 314.695 112.444 311.862 112.923C310.462 113.016 309.102 113.433 307.882 114.143C304.187 116.852 301.74 120.963 298.105 123.83C296.643 124.464 295.978 121.585 295.443 120.658C294.255 118.133 293.222 115.168 290.763 113.777C289.58 113.171 288.238 112.974 286.937 113.216C286.355 113.362 286.629 113.875 286.724 114.363C288.446 119.243 290.216 124.367 290.026 129.625C290.026 141.691 285.274 152.988 280.296 163.675C275.319 174.362 268.523 184.415 268.31 196.615L268.321 196.627Z" fill="#AF6152"/>
<path d="M311.481 119.023C314.499 117.303 318.609 115.119 321.817 117.559C320.15 116.997 318.348 117.023 316.697 117.632C315.164 118.084 313.026 118.669 311.481 119.023Z" fill="#AF6152"/>
<path d="M314.285 125.66C316.568 124.015 319.333 123.231 322.114 123.44C319.562 124.38 316.945 125.122 314.285 125.66Z" fill="#AF6152"/>
<path d="M316.483 132.089C318.663 130.75 320.943 129.592 323.302 128.625C321.52 130.599 319.093 131.832 316.483 132.089Z" fill="#AF6152"/>
</svg>
